<svg width="157" height="18" viewBox="0 0 157 18" fill="none" xmlns="http://www.w3.org/2000/svg">
<path fill-rule="evenodd" clip-rule="evenodd" d="M13.3617 0L10.6348 7.02171L7.90795 0H0V17.1112H5.18107V5.31742L10.6348 15.066L16.0886 5.31742V17.1112H21.2696V0H13.3617ZM35.9266 0H41.3804V10.2258C41.3804 11.2484 41.1759 12.2028 40.9032 13.089C40.5623 13.9752 40.0169 14.7933 39.3352 15.4069C38.6535 16.0886 37.9718 16.5658 37.1537 16.8385C36.1311 17.2475 34.904 17.452 33.4042 17.452C32.4498 17.452 31.5636 17.3839 30.6092 17.2475C29.5866 17.1112 28.7686 16.9066 28.0868 16.5658C27.4051 16.2249 26.7916 15.7477 26.2462 15.066C25.6327 14.4525 25.2918 13.7707 25.0873 13.089C24.7464 11.9983 24.5419 11.0438 24.5419 10.2258V0H29.9957V10.4303C29.9957 11.3847 30.2002 12.1346 30.7456 12.6118C31.2909 13.1572 32.0408 13.4299 32.9952 13.4299C33.8815 13.4299 34.6314 13.1572 35.1767 12.68C35.7221 12.1346 35.9266 11.3847 35.9266 10.4303V0ZM44.789 0H50.1746V12.8845H58.6279V17.1112H44.789V0ZM56.6509 0H73.1485V4.22667H67.6266V17.1112H62.241V4.22667H56.6509V0ZM76.4889 17.1112H81.9427V0H76.4889V17.1112ZM85.7603 0H94.759C96.736 0 98.2358 0.477204 99.1902 1.36344C100.145 2.24967 100.69 3.54494 100.69 5.24924C100.69 6.95355 100.145 8.31697 99.0538 9.33955C98.0313 10.294 96.3951 10.7712 94.2136 10.7712H91.2141V17.1112H85.7603V0ZM91.2141 7.2944H92.5775C93.6001 7.2944 94.35 7.15805 94.759 6.74903C95.168 6.40817 95.3726 5.93096 95.3726 5.38559C95.3726 4.84021 95.2362 4.43117 94.8272 4.02215C94.4863 3.68129 93.8046 3.47677 92.782 3.47677H91.2141V7.2944ZM103.144 0H108.53V12.8845H116.983V17.1112H103.144V0ZM119.914 0H133.617V3.68129H125.027V6.54451H133.481V10.0894H125.027V12.8845H133.685V17.1112H119.914V0ZM136.003 0H142.82L146.297 5.24924L149.706 0H156.455L150.251 8.31697L157 17.1112H150.115L146.161 11.6574L142.275 17.1112H135.389L142.275 8.18063L136.003 0Z" fill="black"/>
</svg>
